<?xml version="1.0" encoding="utf-8"?>
<!-- Svg Vector Icons : http://www.onlinewebfonts.com/icon -->
<!DOCTYPE svg PUBLIC "-//W3C//DTD SVG 1.1//EN" "http://www.w3.org/Graphics/SVG/1.1/DTD/svg11.dtd">
<svg version="1.1" xmlns="http://www.w3.org/2000/svg" xmlns:xlink="http://www.w3.org/1999/xlink" x="0px" y="0px" viewBox="0 0 1000 1000" enable-background="new 0 0 1000 1000" xml:space="preserve">
<metadata> Svg Vector Icons : http://www.onlinewebfonts.com/icon </metadata>
<g><g transform="translate(0.000000,511.000000) scale(0.100000,-0.100000)"><path d="M1987.1,4275.1v-732.9h244.3h244.3v285v285h193.4h193.4v-285v-285H3117h254.5l-4.1,728.8l-6.1,726.8l-248.4,6.1l-250.4,6.1v-276.9v-274.8h-193.4h-193.4v274.8V5008h-244.3h-244.3V4275.1z"/><path d="M3554.6,4837v-173l169-6.1l166.9-6.1l6.1-553.7l4.1-555.8h234.1h234.1v559.8v559.8h173H4717l-6.1,169l-6.1,166.9l-574.1,6.1l-576.1,4.1V4837z"/><path d="M4898.2,4275.1v-732.9h193.4H5285l2,504.9v502.8l112-366.4c61.1-201.5,130.3-427.5,152.7-502.8l40.7-138.4h158.8H5910l138.4,484.5c77.3,264.6,146.6,496.7,154.7,513c10.2,16.3,18.3-201.5,18.3-482.5v-515h193.4h193.4v732.9V5008h-291.1H6024L5914,4631.4c-59-207.7-114-376.6-120.1-376.6c-6.1,0-63.1,166.9-124.2,372.5l-112,370.5l-329.8,6.1l-329.8,4.1V4275.1z"/><path d="M6872.9,4275.1v-732.9h570h570v173v173h-315.5h-315.5v559.8V5008h-254.5h-254.5V4275.1z"/><path d="M1580,2907.1c0-136.4,551.7-6459.4,563.9-6471.6c22.4-20.4,2778.8-1225.5,2805.2-1225.5c16.3,0,2754.3,1101.3,2774.7,1115.6c4.1,4.1,696.2,6546.9,696.2,6591.7c0,8.2-1539,14.3-3420,14.3C2278.2,2931.5,1580,2925.4,1580,2907.1z M6933.9,977.2V590.4H5325.7H3717.5v-397v-397h1608.2h1608.2v-1176.7v-1176.6L5952.7-2968c-541.5-226-991.4-411.2-1001.6-411.2c-12.2,0-462.1,185.2-1003.6,411.2l-983.3,413.3v462.1v464.2h376.6h374.6l6.1-207.7l6.1-207.6l610.7-201.5l608.7-199.5l590.4,199.5c576.1,195.4,590.4,201.5,604.6,260.6c8.2,34.6,18.3,278.9,24.5,545.5l10.2,482.5H4570.5H2964.3V203.6V1364h1984.8h1984.8V977.2z"/></g></g>
</svg>