<?xml version="1.0" encoding="utf-8"?>
<!-- Svg Vector Icons : http://www.onlinewebfonts.com/icon -->
<!DOCTYPE svg PUBLIC "-//W3C//DTD SVG 1.1//EN" "http://www.w3.org/Graphics/SVG/1.1/DTD/svg11.dtd">
<svg version="1.1" xmlns="http://www.w3.org/2000/svg" xmlns:xlink="http://www.w3.org/1999/xlink" x="0px" y="0px" viewBox="0 0 1000 1000" enable-background="new 0 0 1000 1000" xml:space="preserve">
<metadata> Svg Vector Icons : http://www.onlinewebfonts.com/icon </metadata>
<g><path d="M244.1,740.6h511.8v60.1H244.1V740.6z"/><path d="M244.1,609.4h511.8v60.1H244.1V609.4z"/><path d="M248.4,199.3h227.9v202.9H248.4V199.3z"/><path d="M244.1,483.8h511.8v60.1H244.1V483.8z"/><path d="M774.2,10H225.8c-54.6,0-99.3,44.7-99.3,99.3v781.4c0,54.6,44.7,99.3,99.3,99.3h548.4c54.6,0,99.3-44.7,99.3-99.3V109.3C873.5,54.7,828.8,10,774.2,10z M799.5,832.2c0,43.7-35.7,79.4-79.4,79.4H279.8c-43.7,0-79.4-35.7-79.4-79.4V167.8c0-43.7,35.7-79.4,79.4-79.4h440.3c43.7,0,79.4,35.7,79.4,79.4V832.2z"/><path d="M570.6,342h185.3v57.6H570.6V342z"/><path d="M570.6,199.3h185.3v57.5H570.6V199.3L570.6,199.3z"/></g>
</svg>